<?xml version="1.0" standalone="no"?><!DOCTYPE svg PUBLIC "-//W3C//DTD SVG 1.1//EN" "http://www.w3.org/Graphics/SVG/1.1/DTD/svg11.dtd"><svg class="icon" width="200px" height="200.00px" viewBox="0 0 1024 1024" version="1.1" xmlns="http://www.w3.org/2000/svg"><path d="M914.765913 202.796522v236.900174H1001.73913v21.748869l-194.31513-0.022261c2.270609 33.569391 3.428174 98.170435-13.334261 160.100174a934.733913 934.733913 0 0 1-13.445565 46.391652 164.841739 164.841739 0 0 1 65.424696 124.527305l0.133565 5.38713h-39.223652l0.066782 1.78087a114.999652 114.999652 0 0 1-110.124522 114.866087l-4.852869 0.111304a115.088696 115.088696 0 0 1-108.944696-78.046609H283.314087c0.934957-4.006957 1.714087-7.791304 2.359652-11.353043A114.999652 114.999652 0 0 1 58.546087 799.610435l0.044522-1.78087H0a165.042087 165.042087 0 0 1 94.163478-147.344695l3.739826-1.714087-0.26713-1.602783c-3.272348-20.101565-26.646261-178.688 30.430609-302.302609 3.205565 2.070261 8.414609 4.118261 13.57913 5.810087-33.01287-12.377043-81.074087-47.638261-84.457739-72.303304l-0.200348-2.693565v-20.101566c0-29.295304 70.745043-32.033391 101.509565-32.166956h124.683131c25.644522 0 17.897739 1.513739 15.805217 22.839652a37.888 37.888 0 0 1 0.066783 41.182609l-0.066783-0.712348c2.025739 28.783304 9.282783 65.669565-13.200696 68.296348l-2.604521 0.133565H161.346783c-2.203826 0-4.674783-0.289391-7.346087-0.823652l3.561739 0.890435 0.155826 0.022261h72.258782c-0.734609 48.061217 0.200348 104.136348 5.387131 155.959652 10.774261 107.364174 53.426087 176.172522 65.780869 194.114782l111.482435-0.244869 1.246609-5.609739c5.565217-24.731826 12.04313-52.157217 27.425391-106.496 20.591304-72.726261 27.826087-149.682087 165.62087-154.713044V202.796522h307.845565zM738.170435 797.384348v0.467478h-91.737044l-0.044521 1.625044c0 25.043478 20.902957 45.924174 45.924173 45.924173a46.34713 46.34713 0 0 0 45.857392-48.016695z m-518.544696 0.467478h-91.714782c-0.044522 0.556522-0.044522 1.113043-0.044522 1.625044 0 25.043478 20.880696 45.924174 45.901913 45.924173a46.34713 46.34713 0 0 0 45.857391-48.016695v0.467478z m47.237565-567.963826c-20.413217 0-37.042087 16.606609-37.042087 37.042087a37.064348 37.064348 0 0 0 74.128696 0c0-20.435478-16.65113-37.042087-37.086609-37.042087z m0 19.322435c22.839652 0 22.839652 35.394783 0 35.394782-22.817391 0-22.817391-35.394783 0-35.394782zM291.172174 89.043478a48.973913 48.973913 0 0 1 48.840348 45.523479l0.133565 3.494956v2.114783a48.973913 48.973913 0 0 1-45.478957 48.840347l-3.494956 0.133566h-2.137044c-4.073739 0-8.058435-0.512-11.842782-1.469218l-3.762087-1.113043V139.909565c-3.717565 1.001739-28.93913 10.373565-35.194435 82.365218h-10.195478c0-52.313043 21.548522-91.625739 45.412174-92.115479V91.625739a49.196522 49.196522 0 0 1 11.553391-2.404174L289.03513 89.043478h2.137044z" fill="#66B5D6" /></svg>