<?xml version="1.0" standalone="no"?><!DOCTYPE svg PUBLIC "-//W3C//DTD SVG 1.1//EN" "http://www.w3.org/Graphics/SVG/1.1/DTD/svg11.dtd"><svg class="icon" width="200px" height="200.00px" viewBox="0 0 1024 1024" version="1.1" xmlns="http://www.w3.org/2000/svg"><path d="M753.3 215.2h-48.1c-6.8 0-12.4-5.5-12.4-12.4v-21.7c0-34.2-27.8-62-62-62H388.9c-34.2 0-62 27.8-62 62v21.7c0 6.9-5.6 12.4-12.4 12.4h-48.1c-34.3 0-62 27.8-62 62v46.5c0 6.9 5.6 12.4 12.4 12.4H803c6.9 0 12.4-5.6 12.4-12.4v-46.5c-0.1-34.2-27.8-62-62.1-62z m-110.1-12.4c0 6.9-5.5 12.4-12.4 12.4H388.9c-6.9 0-12.4-5.5-12.4-12.4v-21.7c0-6.8 5.5-12.4 12.4-12.4h241.9c6.8 0 12.4 5.5 12.4 12.4v21.7z m0 0M790.5 374.2H229.2c-13.7 0-23.7 11.1-22.3 24.7L256 882.2c1.4 13.6 13.6 24.7 27.3 24.7h452.8c13.7 0 25.9-11.1 27.3-24.7l49.4-483.3c1.4-13.6-8.6-24.7-22.3-24.7zM492.1 739.5c0 8.7-7.1 15.8-15.8 15.8h-78.4c-8.7 0-20.3-5.4-25.9-12.1l-46.8-56c-5.6-6.7-7.5-18.7-4.3-26.7l6-15.1c3.2-8.1-0.7-17.3-8.8-20.5-5.5-2.2-11.8-4.7-17.3-7-8-3.3-7.5-7.5 1-9.1l63.4-11.9c8.6-1.6 19.7 2.8 24.8 9.9 10.5 14.5 27.6 38 38 52.5 5.1 7.1 2.5 10.3-5.6 7.1l-16.4-6.5c-8.1-3.2-15.5-3.7-16.5-1.1s2.6 10.1 8.2 16.8l3.8 4.5c5.6 6.7 17.2 12.1 25.9 12.1h48.9c8.7 0 15.8 7 15.8 15.8v31.5z m11.5-207.7l15.5-8.4c7.7-4.2 12.8-9.5 11.4-12-1.3-2.5-9.5-4.5-18.2-4.5h-5.9c-8.7 0-20.3 5.4-25.9 12.1l-31.4 37.5c-5.6 6.7-15.6 7.6-22.2 1.9l-24.2-20.2c-6.7-5.6-7.6-15.6-1.9-22.2l50.3-60.1c5.6-6.7 17.2-12.1 25.9-12.1h73c8.7 0 19.1 6.2 23.3 13.9l7.7 14.2c4.2 7.7 13.7 10.5 21.4 6.4 5.3-2.8 11.2-6 16.5-8.8 7.7-4.1 10.6-1 6.3 6.6l-31.6 56.3c-4.3 7.6-14.8 13.3-23.5 12.7-17.9-1.2-46.8-3.2-64.7-4.6-8.7-0.5-9.5-4.6-1.8-8.7z m180 152.7l-38.9 61.8c-4.6 7.4-15.4 12.9-24.2 12.3l-16.2-1.1c-8.7-0.5-16.2 6-16.8 14.7-0.4 5.9-0.9 12.7-1.3 18.6-0.7 8.7-4.8 9.5-9 1.8l-30.8-56.8c-4.1-7.7-3.3-19.6 1.8-26.6 10.5-14.5 27.7-37.9 38.3-52.3 5.2-7 9.1-5.6 8.4 3.2l-1.1 17.6c-0.6 8.7 1.2 15.9 4 16.1 2.8 0.2 8.8-5.7 13.5-13l3.1-5c4.7-7.4 6.2-20 3.6-28.4l-15-46.6c-2.7-8.3 1.8-17.2 10.2-19.9l30.1-9.7c8.3-2.7 17.2 1.9 19.8 10.2l24 74.6c2.7 8.4 1.2 21.1-3.5 28.5z m0 0"  /></svg>